<?xml version="1.0" standalone="no"?>
<!DOCTYPE svg PUBLIC "-//W3C//DTD SVG 20010904//EN"
 "http://www.w3.org/TR/2001/REC-SVG-20010904/DTD/svg10.dtd">
<svg version="1.0" xmlns="http://www.w3.org/2000/svg"
 width="200.000000pt" height="200.000000pt" viewBox="0 0 200.000000 200.000000"
 preserveAspectRatio="xMidYMid meet">

<g transform="translate(0.000000,200.000000) scale(0.100000,-0.100000)"
fill="#000000" stroke="none">
<path d="M1612 1878 c-7 -7 -12 -21 -12 -33 0 -44 60 -63 80 -26 14 27 13 37
-6 55 -18 19 -45 21 -62 4z m59 -14 c17 -21 0 -49 -32 -49 -24 0 -36 23 -25
51 7 19 40 18 57 -2z"/>
<path d="M565 1836 c-16 -9 -18 -15 -10 -33 10 -24 55 -38 55 -17 0 7 3 19 6
28 4 10 1 16 -9 16 -8 0 -17 4 -19 8 -1 4 -12 3 -23 -2z m25 -36 c-9 -6 -17
-5 -22 3 -9 15 14 29 27 16 6 -6 5 -13 -5 -19z"/>
<path d="M1797 1678 c-6 -23 -13 -28 -39 -28 l-32 0 23 -16 c18 -13 22 -23 17
-46 l-6 -30 26 17 c24 16 27 16 46 -2 21 -18 21 -18 14 11 -6 24 -3 33 16 48
l23 18 -31 0 c-24 0 -32 6 -40 28 l-10 27 -7 -27z m40 -62 c-6 -12 -21 -22
-33 -22 -13 -1 -21 2 -18 8 3 5 0 15 -6 23 -10 12 -9 15 4 15 9 0 16 4 16 9 0
5 10 4 23 -2 19 -9 22 -14 14 -31z"/>
<path d="M272 1678 c-29 -29 -8 -80 33 -80 30 0 45 15 45 48 0 26 -18 44 -45
44 -12 0 -26 -5 -33 -12z m63 -33 c0 -27 -3 -30 -30 -30 -21 0 -31 5 -33 18
-6 33 6 49 35 45 24 -3 28 -8 28 -33z"/>
<path d="M504 1466 l-34 -34 0 -298 0 -299 -85 -167 -86 -168 701 0 702 0 -86
166 -86 166 0 300 0 300 -34 34 -34 34 -462 0 -462 0 -34 -34z m971 -21 l25
-24 0 -271 0 -270 -500 0 -500 0 0 270 0 271 25 24 24 25 451 0 451 0 24 -25z
m-222 -602 c-139 -2 -367 -2 -505 0 -139 1 -26 2 252 2 278 0 391 -1 253 -2z
m326 -173 l72 -140 -651 0 -651 0 72 140 72 140 507 0 507 0 72 -140z"/>
<path d="M535 1435 l-25 -24 0 -229 c0 -217 1 -231 21 -256 l20 -26 449 0 449
0 20 26 c20 25 21 39 21 256 l0 229 -25 24 -24 25 -441 0 -441 0 -24 -25z
m907 -22 c16 -15 18 -35 18 -230 0 -129 -4 -222 -10 -234 -10 -18 -26 -19
-450 -19 -424 0 -440 1 -450 19 -6 12 -10 106 -10 235 0 182 2 217 16 230 14
14 67 16 441 16 383 0 428 -2 445 -17z"/>
<path d="M830 1325 c-91 -36 -176 -70 -190 -76 -23 -10 -18 -14 73 -46 l97
-35 0 -109 0 -109 190 0 190 0 0 109 c0 90 3 110 16 115 29 11 34 6 34 -39 0
-25 -4 -45 -10 -45 -6 0 -10 -30 -10 -70 l0 -70 35 0 35 0 0 70 c0 40 -4 70
-10 70 -5 0 -10 25 -10 54 l0 55 55 17 c30 10 52 21 48 25 -7 6 -369 149 -376
149 -1 0 -76 -30 -167 -65z m315 -25 c140 -55 156 -65 128 -72 -25 -6 -243 30
-260 43 -15 13 -43 -4 -43 -26 0 -21 28 -39 43 -27 13 12 157 -5 157 -18 0 -4
-38 -20 -85 -36 l-85 -29 -145 50 c-80 28 -145 52 -145 55 1 8 284 118 295
115 6 -2 69 -26 140 -55z m-65 -171 l80 30 0 -85 0 -84 -160 0 -160 0 0 84 0
85 80 -30 80 -29 80 29z m177 -121 c-2 -13 -4 -5 -4 17 -1 22 1 32 4 23 2 -10
2 -28 0 -40z"/>
<path d="M160 1400 c0 -6 -12 -15 -26 -20 -23 -9 -24 -12 -13 -27 8 -9 13 -23
11 -32 -2 -13 6 -16 38 -16 32 0 40 3 38 16 -2 9 3 23 11 32 11 15 10 18 -13
27 -14 5 -26 14 -26 20 0 5 -4 10 -10 10 -5 0 -10 -5 -10 -10z m20 -20 c0 -5
7 -10 16 -10 13 0 14 -3 4 -15 -6 -8 -9 -18 -6 -23 3 -5 -5 -9 -17 -9 -14 0
-27 9 -34 23 -9 19 -8 24 3 24 8 0 14 5 14 10 0 6 5 10 10 10 6 0 10 -4 10
-10z"/>
<path d="M1832 1390 c0 -14 2 -19 5 -12 2 6 2 18 0 25 -3 6 -5 1 -5 -13z"/>
<path d="M1831 1304 c0 -11 3 -14 6 -6 3 7 2 16 -1 19 -3 4 -6 -2 -5 -13z"/>
<path d="M1831 1224 c0 -11 3 -14 6 -6 3 7 2 16 -1 19 -3 4 -6 -2 -5 -13z"/>
<path d="M1832 1140 c0 -14 2 -19 5 -12 2 6 2 18 0 25 -3 6 -5 1 -5 -13z"/>
<path d="M1816 1004 c-9 -8 -16 -19 -16 -24 0 -5 7 -16 16 -24 8 -9 19 -16 24
-16 5 0 16 7 24 16 9 8 16 19 16 24 0 5 -7 16 -16 24 -8 9 -19 16 -24 16 -5 0
-16 -7 -24 -16z m44 -10 c11 -12 10 -18 -3 -32 -16 -15 -18 -15 -34 0 -13 14
-14 20 -3 32 7 9 16 16 20 16 4 0 13 -7 20 -16z"/>
<path d="M1789 591 c-21 -21 -10 -56 17 -57 12 0 25 9 31 22 9 19 7 25 -11 37
-18 12 -23 12 -37 -2z m34 -27 c-7 -18 -33 -18 -33 -1 0 19 10 27 25 20 8 -2
11 -11 8 -19z"/>
<path d="M132 570 c0 -14 2 -19 5 -12 2 6 2 18 0 25 -3 6 -5 1 -5 -13z"/>
<path d="M141 484 c0 -11 3 -14 6 -6 3 7 2 16 -1 19 -3 4 -6 -2 -5 -13z"/>
<path d="M160 418 c0 -9 5 -20 10 -23 13 -8 13 5 0 25 -8 13 -10 13 -10 -2z"/>
<path d="M190 346 c0 -2 7 -9 15 -16 13 -11 14 -10 9 4 -5 14 -24 23 -24 12z"/>
<path d="M1836 334 c-4 -9 -4 -19 -1 -22 2 -3 7 3 11 12 4 9 4 19 1 22 -2 3
-7 -3 -11 -12z"/>
<path d="M240 286 c0 -2 8 -10 18 -17 15 -13 16 -12 3 4 -13 16 -21 21 -21 13z"/>
<path d="M1791 247 c-13 -21 -12 -21 5 -5 10 10 16 20 13 22 -3 3 -11 -5 -18
-17z"/>
<path d="M317 219 c7 -7 15 -10 18 -7 3 3 -2 9 -12 12 -14 6 -15 5 -6 -5z"/>
<path d="M541 178 c-19 -49 39 -87 74 -48 15 17 16 24 7 45 -16 34 -69 36 -81
3z m73 -10 c15 -24 -13 -53 -43 -43 -21 6 -29 43 -14 59 12 12 45 2 57 -16z"/>
<path d="M1724 185 c-10 -8 -14 -15 -8 -15 6 0 17 7 24 15 16 19 9 19 -16 0z"/>
<path d="M380 186 c0 -2 7 -7 16 -10 8 -3 12 -2 9 4 -6 10 -25 14 -25 6z"/>
<path d="M1645 150 c-16 -7 -17 -9 -3 -9 9 -1 20 4 23 9 7 11 7 11 -20 0z"/>
</g>
</svg>
