<?xml version="1.0" encoding="utf-8"?>
<!-- Generator: Adobe Illustrator 27.5.0, SVG Export Plug-In . SVG Version: 6.00 Build 0)  -->
<svg version="1.1" xmlns="http://www.w3.org/2000/svg" xmlns:xlink="http://www.w3.org/1999/xlink" x="0px" y="0px"
	 viewBox="0 0 500 500" style="enable-background:new 0 0 500 500;" xml:space="preserve">
<g id="Floor">
	<ellipse id="Floor_8_" style="fill:#F5F5F5;" cx="251.124" cy="328.55" rx="233.348" ry="143.718"/>
</g>
<g id="Shadows">
	<path id="Shadow_11_" style="fill:#E0E0E0;" d="M345.213,318.705l-127.421-73.567c-1.75-1.01-4.587-1.01-6.337,0l-107.603,62.126
		c-1.75,1.01-1.75,2.648,0,3.659l127.419,73.566c1.75,1.01,4.587,1.01,6.337,0l8.767-5.062l58.5-33.775l40.338-23.289
		C346.962,321.354,346.962,319.716,345.213,318.705z"/>
	<path id="Shadow_10_" style="fill:#E0E0E0;" d="M426.459,257.401l-72.639-42.117c-1.186-0.684-3.108-0.684-4.293,0l-72.9,42.09
		c-1.186,0.685-1.186,1.794,0,2.479l72.638,42.117c1.186,0.685,3.108,0.685,4.293,0l5.94-3.429l39.633-22.882l27.329-15.778
		C427.644,259.195,427.644,258.086,426.459,257.401z"/>
	<ellipse id="Shadow_9_" style="fill:#E0E0E0;" cx="85.374" cy="333.434" rx="37.31" ry="21.541"/>
	<ellipse id="Shadow_3_" style="fill:#E0E0E0;" cx="317.079" cy="371.912" rx="71.802" ry="41.455"/>
</g>
<g id="End_Table">
	<g id="End_Table_2_">
		<polygon id="XMLID_154_" style="fill:#E0E0E0;" points="414.952,263.031 403.386,256.352 414.952,253.012 		"/>
		<polygon id="XMLID_153_" style="opacity:0.1;" points="414.952,263.031 403.386,256.352 414.952,253.012 		"/>
		<polygon id="XMLID_152_" style="fill:#E0E0E0;" points="357.009,286.469 357.009,297.119 290.315,258.525 290.315,247.876 		"/>
		<polygon id="XMLID_151_" style="opacity:0.1;" points="357.009,286.469 357.009,297.119 290.315,258.525 290.315,247.876 		"/>
		<polygon id="XMLID_150_" style="fill:#E0E0E0;" points="284.53,164.388 351.226,202.982 351.226,289.809 284.53,251.216 		"/>
		<polygon id="XMLID_149_" style="fill:#EBEBEB;" points="351.226,202.982 426.522,159.506 426.522,246.334 351.226,289.809 		"/>
		<polygon id="XMLID_148_" style="fill:#F5F5F5;" points="426.522,159.506 359.826,120.913 284.53,164.388 351.226,202.982 		"/>
		<polygon id="XMLID_147_" style="fill:#FAFAFA;" points="357.009,206.321 420.739,169.524 420.739,189.561 357.009,226.359 		"/>
		<polygon id="XMLID_146_" style="opacity:0.1;" points="357.009,233.037 420.739,196.24 420.739,242.994 357.009,279.791 		"/>
		<polygon id="XMLID_145_" style="fill:#EBEBEB;" points="357.009,297.119 362.795,293.779 362.795,283.13 357.009,286.469 		"/>
		<polygon id="XMLID_144_" style="fill:#EBEBEB;" points="414.952,263.031 420.737,259.691 420.737,249.673 414.952,253.012 		"/>
		<path id="XMLID_143_" style="fill:#E0E0E0;" d="M376.76,199.137c0,0.922,2.76,0.076,6.166-1.89l10.804-6.238
			c3.405-1.966,6.166-4.308,6.167-5.23l0.001-1.67l-23.137,13.357C376.76,197.467,376.76,198.214,376.76,199.137z"/>
		<polygon id="XMLID_142_" style="opacity:0.1;" points="420.739,242.994 380.524,219.46 357.009,233.037 357.009,279.791 		"/>
	</g>
</g>
<g id="Lamp">
	<g id="XMLID_6575_">
		<path id="XMLID_611_" style="fill:#E0E0E0;" d="M340.959,146.563c-7.947,4.588-7.947,12.027,0,16.615
			c7.947,4.588,20.831,4.588,28.777,0c7.947-4.588,7.947-12.027,0-16.615C361.79,141.975,348.906,141.975,340.959,146.563z"/>
		<path id="XMLID_608_" style="fill:#37474F;" d="M373.526,149.456c-0.822-1.79-2.444-3.484-4.876-4.888
			c-7.347-4.242-19.259-4.242-26.605,0c-2.432,1.404-4.054,3.097-4.875,4.888h-0.635v2.793l0,0c0,2.78,1.837,5.559,5.51,7.68
			c7.347,4.242,19.259,4.242,26.605,0c3.673-2.121,5.51-4.9,5.51-7.68l0,0v-2.793H373.526z"/>
		<path id="XMLID_602_" style="fill:#455A64;" d="M342.045,157.137c-7.347-4.242-7.347-11.119,0-15.361
			c7.347-4.242,19.258-4.242,26.605,0c7.347,4.242,7.347,11.119,0,15.361C361.303,161.378,349.392,161.378,342.045,157.137z"/>
		<g>
			<path style="fill:#37474F;" d="M359.436,147.778l-3.528-1.238c15.089-43.025-20.16-56.784-21.668-57.349l1.304-3.504
				C335.948,85.838,375.758,101.236,359.436,147.778z"/>
		</g>
		<g id="XMLID_550_">
			<path id="XMLID_554_" style="fill:#37474F;" d="M362.603,149.456c0-4.007-3.249-7.256-7.256-7.256
				c-4.007,0-7.256,3.249-7.256,7.256h0c0,1.072,0.708,2.144,2.125,2.962c2.834,1.636,7.428,1.636,10.262,0
				C361.895,151.6,362.603,150.529,362.603,149.456L362.603,149.456z"/>
			<path id="XMLID_6667_" style="fill:#263238;" d="M360.185,149.016c-0.513,3.017-6.712,4.512-9.217,3.775
				c2.844,1.248,6.914,1.126,9.511-0.372c1.417-0.818,2.125-1.89,2.125-2.962c0-4.007-3.249-7.256-7.256-7.256
				C357.115,142.2,360.699,145.994,360.185,149.016z"/>
		</g>
		<g id="XMLID_430_">
			<path id="XMLID_540_" d="M335.096,86.671l-1.26-1.447l4.414-3.843c0.4-0.348,1.005-0.306,1.353,0.093l0,0
				c0.348,0.399,0.306,1.005-0.094,1.353L335.096,86.671z"/>
			<path id="XMLID_537_" style="fill:#37474F;" d="M337.85,89.106c1.06-1.329,0.137-3.763-1.082-5.162
				c-1.219-1.4-3.502-2.649-4.965-1.782c-1.462,0.867-4.349,2.971-4.349,2.971l6.855,7.872
				C334.31,93.005,336.791,90.436,337.85,89.106z"/>
			<path id="XMLID_455_" style="fill:#263238;" d="M334.498,82.258c1.542,1.793,2.192,5.168-2.355,8.259l2.166,2.488
				c0,0,2.481-2.569,3.541-3.899c1.06-1.329,0.137-3.763-1.082-5.162C336.186,83.275,335.36,82.644,334.498,82.258z"/>
			<path id="XMLID_453_" style="fill:#455A64;" d="M323.526,120.42c5.887-5.126,15.453-24.545,8.59-32.426
				s-27.413-1.076-33.299,4.05"/>
			
				<ellipse id="XMLID_451_" transform="matrix(0.7542 -0.6567 0.6567 0.7542 6.7372 230.461)" style="fill:#37474F;" cx="311.172" cy="106.232" rx="9.159" ry="18.813"/>
			<path id="XMLID_449_" style="fill:#27DEBF;" d="M322.075,106.804c0.135-0.118,0.258-0.244,0.383-0.369
				c-2.41-4.351-6.077-8.544-10.062-11.503c-0.132,0.101-0.265,0.197-0.391,0.308c-3.193,2.781-3.528,7.624-0.747,10.817
				C314.038,109.251,318.881,109.585,322.075,106.804z"/>
			<path id="XMLID_460_" style="opacity:0.7;fill:#FFFFFF;" d="M322.075,106.804c0.135-0.118,0.258-0.244,0.383-0.369
				c-2.41-4.351-6.077-8.544-10.062-11.503c-0.132,0.101-0.265,0.197-0.391,0.308c-3.193,2.781-3.528,7.624-0.747,10.817
				C314.038,109.251,318.881,109.585,322.075,106.804z"/>
		</g>
	</g>
</g>
<g id="Speech_Bubble">
	<g id="Speech_Bubble_3_">
		<g id="Speech_Bubble_4_">
			<g id="XMLID_121_">
				<path id="XMLID_125_" style="fill:#27DEBF;" d="M142.212,115.838l0-11.939l10.078-0.879c0.157-0.014,0.299,0.02,0.419,0.085
					c0.39,0.214,9.932,5.673,10.056,5.748c0.372,0.223,0.507,0.765,0.164,1.137l-10.685,11.582L142.212,115.838z"/>
				<path id="XMLID_124_" style="fill:#27DEBF;" d="M152.245,121.572l10.685-11.582c0.457-0.496,0.065-1.295-0.607-1.236
					l-10.078,0.879V121.572z"/>
				<path id="XMLID_123_" style="fill:#27DEBF;" d="M142.216,103.895l10.029,5.742l10.08-0.882c0.127-0.008,0.246,0.008,0.348,0.051
					c-0.806-0.475-9.596-5.504-9.961-5.699c-0.119-0.068-0.263-0.102-0.424-0.085L142.216,103.895z"/>
				<path id="XMLID_122_" style="opacity:0.5;fill:#FFFFFF;" d="M142.216,103.895l10.029,5.742l10.08-0.882
					c0.127-0.008,0.246,0.008,0.348,0.051c-0.806-0.475-9.596-5.504-9.961-5.699c-0.119-0.068-0.263-0.102-0.424-0.085
					L142.216,103.895z"/>
			</g>
			<g id="XMLID_114_">
				<g id="XMLID_115_">
					<g id="XMLID_116_">
						<g id="XMLID_117_">
							<path id="XMLID_120_" style="fill:#27DEBF;" d="M152.226,96.162c0-2.317-1.626-5.134-3.633-6.293l-0.922-0.618
								c-2.006-1.159-5.259-1.159-7.266,0l-31.53,18.206c-2.007,1.159-3.633,3.976-3.633,6.293v36.424
								c0,2.317,1.627,5.134,3.633,6.293l0.922,0.618c2.006,1.158,5.26,1.158,7.266,0l9.308-5.374l12.099-6.99l10.123-5.842
								c2.007-1.158,3.633-3.975,3.633-6.292L152.226,96.162z"/>
							<path id="XMLID_119_" style="opacity:0.2;" d="M105.242,150.174c0,2.317,1.627,5.134,3.633,6.293l0.922,0.618
								c1.813,1.047,4.636,1.138,6.645,0.293c-1.71,0.647-3.012-0.318-3.012-2.39l0-36.425c0-1.159,0.407-2.442,1.064-3.581
								l-8.188-4.813c-0.657,1.138-1.064,2.422-1.064,3.58V150.174z"/>
							<path id="XMLID_118_" style="opacity:0.5;fill:#FFFFFF;" d="M152.107,95.129c-0.424-1.542-1.83-2.034-3.508-1.068
								l-31.538,18.212c-1,0.576-1.915,1.559-2.559,2.712l-8.184-4.808c0.661-1.153,1.559-2.136,2.559-2.712l31.521-18.212
								c2.017-1.153,5.271-1.153,7.271,0l0.93,0.622C150.311,90.858,151.751,93.062,152.107,95.129z"/>
						</g>
					</g>
				</g>
			</g>
		</g>
		<path id="Gear_1_" style="fill:#FAFAFA;" d="M145.492,121.692l-2.654-0.137c-0.187-0.01-0.324-0.268-0.317-0.58
			c0.018-0.776-0.017-1.516-0.102-2.213c-0.038-0.314,0.029-0.721,0.165-0.914l2.627-3.727c0.136-0.192,0.147-0.56,0.026-0.822
			l-1.308-2.82c-0.121-0.261-0.342-0.344-0.493-0.185l-2.924,3.087c-0.151,0.159-0.41,0.152-0.585,0.007
			c-0.389-0.323-0.816-0.581-1.28-0.765c-0.186-0.074-0.301-0.359-0.255-0.655l0.647-4.189c0.046-0.296-0.067-0.518-0.252-0.496
			l-3.098,0.366c-0.185,0.022-0.399,0.258-0.478,0.528l-1.285,4.373c-0.079,0.27-0.286,0.555-0.459,0.645
			c-0.665,0.346-1.324,0.785-1.968,1.302c-0.162,0.13-0.41,0.059-0.555-0.165l-1.439-2.21c-0.146-0.224-0.38-0.263-0.524-0.087
			l-3.062,3.76c-0.144,0.176-0.185,0.554-0.093,0.844l0.911,2.858c0.092,0.29,0.066,0.697-0.055,0.914
			c-0.483,0.866-0.923,1.777-1.31,2.722c-0.101,0.246-0.326,0.49-0.507,0.54l-2.937,0.81c-0.181,0.05-0.38,0.32-0.443,0.603
			l-1.067,4.747c-0.064,0.283,0.037,0.521,0.224,0.531l2.654,0.137c0.187,0.01,0.324,0.268,0.317,0.58
			c-0.018,0.776,0.017,1.516,0.101,2.213c0.038,0.314-0.029,0.722-0.165,0.914l-2.627,3.727c-0.135,0.192-0.147,0.56-0.026,0.822
			l1.308,2.82c0.121,0.262,0.342,0.344,0.493,0.185l2.924-3.087c0.151-0.159,0.411-0.152,0.586-0.007
			c0.389,0.323,0.816,0.581,1.28,0.765c0.186,0.074,0.301,0.359,0.256,0.655l-0.647,4.19c-0.046,0.296,0.067,0.518,0.252,0.496
			l3.098-0.367c0.185-0.022,0.399-0.258,0.479-0.528l1.285-4.373c0.079-0.27,0.285-0.555,0.459-0.646
			c0.665-0.346,1.324-0.785,1.968-1.302c0.162-0.13,0.41-0.059,0.555,0.165l1.44,2.21c0.146,0.224,0.381,0.263,0.524,0.087
			l3.062-3.759c0.144-0.176,0.185-0.554,0.093-0.844l-0.911-2.858c-0.092-0.29-0.066-0.697,0.055-0.915
			c0.483-0.866,0.923-1.777,1.31-2.722c0.101-0.246,0.326-0.49,0.507-0.54l2.937-0.81c0.181-0.05,0.38-0.32,0.443-0.603l1.067-4.747
			C145.78,121.939,145.68,121.701,145.492,121.692z M139.431,125.276c-1.21,5.385-5.04,10.088-8.555,10.504
			c-3.515,0.416-5.383-3.613-4.173-8.998c1.21-5.385,5.04-10.088,8.555-10.504C138.773,115.863,140.641,119.891,139.431,125.276z"/>
	</g>
</g>
<g id="Character">
	<g>
		<g id="XMLID_296_">
			<g id="XMLID_879_">
				<g id="XMLID_15363_">
					<path style="fill:#37474F;" d="M321.067,264.422L321.067,264.422c0.957,5.711-1.733,11.417-6.748,14.312l-78.972,41.169
						l-0.228,4.558l-3.598,2.077l4.634,2.664l87.299-50.534L321.067,264.422z"/>
				</g>
				<g id="XMLID_15360_">
					<path style="fill:#455A64;" d="M238.612,349.284L238.612,349.284c-0.505-6.067,1.651-12.169,6.924-15.213l71.171-41.091
						c4.038-2.331,9.161,0.084,9.932,4.682l0,0l-4.747-28.322l0,0c0.938,5.596-1.696,11.185-6.608,14.024l-73.68,42.582
						c-2.571,1.486-5.275,0.071-5.522-2.888l-0.377-3.909L238.612,349.284z"/>
				</g>
			</g>
			<g id="XMLID_15357_">
				<path style="fill:#455A64;" d="M240.158,154.883l-20.178,11.65l86.063,54.421c5.508,3.483,9.271,9.146,10.348,15.573
					l12.535,81.156c0.162,0.965,1.237,1.473,2.085,0.983l0,0c0.47-0.272,0.742-0.79,0.578-2.763l-7.167-86.238
					c-0.405-4.871-3.513-10.676-8.466-14.609L240.158,154.883z"/>
			</g>
			<polygon style="opacity:0.2;" points="276.207,202.088 289.05,210.209 286.361,191.562 274.854,182.427 			"/>
			<g id="XMLID_878_">
				<g id="XMLID_15361_">
					<path style="fill:#263238;" d="M146.726,261.956l-0.494,1.14c-1.775,4.1-0.195,8.879,3.674,11.112l79.36,45.819l-1.99-11.872
						l2.984,17.804l-88.947-51.503L146.726,261.956z"/>
				</g>
				<g id="XMLID_872_">
					<path style="fill:#263238;" d="M146.726,261.956l-0.312,0.721c-2.582,5.963,3.932,11.769,9.56,8.521l3.38-1.951l4.51,2.605
						l-18.497,10.679l-5.859-3.909L146.726,261.956z"/>
				</g>
			</g>
			<g id="XMLID_877_">
				<path style="fill:#27DEBF;" d="M231.224,321.156l-76.083-43.961c-2.655-1.534-4.807-5.263-4.807-8.329v-4.482
					c0-3.066,2.153-6.795,4.808-8.328l76.082-43.926c2.655-1.533,6.961-1.533,9.616,0l76.081,43.926
					c2.655,1.533,4.808,5.262,4.808,8.328v4.543c0,3.066-2.153,6.794-4.809,8.327l-76.082,43.906
					C238.184,322.691,233.879,322.69,231.224,321.156z"/>
				<path style="opacity:0.3;" d="M232.629,321.763c-0.494-0.167-0.979-0.36-1.406-0.611l-76.083-43.961
					c-2.652-1.531-4.803-5.263-4.803-8.325v-4.485c0-2.704,1.685-5.916,3.901-7.687c-1.707,1.526-1.405,3.576,0.901,4.909
					l75.723,43.719L232.629,321.763z"/>
				<path style="opacity:0.15;" d="M321.731,264.381v4.543c0,3.071-2.15,6.794-4.811,8.325l-76.083,43.911
					c-2.226,1.28-5.606,1.481-8.208,0.594l-1.766-16.433l0.36,0.209c2.652,1.539,6.962,1.539,9.614,0l76.083-43.928
					c2.318-1.33,2.619-3.389,0.904-4.911C320.049,258.466,321.731,261.679,321.731,264.381z"/>
			</g>
			<g id="XMLID_876_">
				<path style="fill:#27DEBF;" d="M258.291,227.75L182.2,271.677c-1.531,0.895-3.623,1.263-5.631,1.113
					c-0.284-0.017-0.569-0.05-0.845-0.092c-0.059-0.008-0.117-0.017-0.176-0.025c-0.176-0.033-0.335-0.059-0.502-0.092
					c-0.017,0-0.042-0.008-0.067-0.017c-0.251-0.05-0.502-0.117-0.753-0.193c-0.586-0.176-1.146-0.41-1.64-0.694l-3.916-2.259
					c-2.652-1.531-5.246-5.221-5.782-8.242l-11.572-64.586c-0.067-0.393-0.1-0.786-0.1-1.196c0-0.159,0.008-0.318,0.017-0.477
					c0.059-0.795,0.243-1.598,0.527-2.359c0.536-1.423,1.422-2.728,2.544-3.631c0.109-0.084,0.218-0.167,0.326-0.251
					c0.168-0.117,0.335-0.226,0.51-0.326l76.083-43.928c2.661-1.531,6.962-1.531,9.614,0l3.916,2.259
					c0.795,0.46,1.581,1.113,2.309,1.883c0.134,0.134,0.268,0.285,0.385,0.427c0.519,0.586,0.996,1.23,1.406,1.891
					c0.1,0.142,0.184,0.285,0.268,0.435c0.075,0.126,0.15,0.259,0.217,0.385c0.109,0.192,0.201,0.376,0.293,0.569
					c0.092,0.184,0.184,0.376,0.259,0.569c0.067,0.159,0.134,0.318,0.192,0.477c0.034,0.075,0.059,0.151,0.084,0.226
					c0.05,0.142,0.092,0.285,0.134,0.427c0.059,0.184,0.109,0.368,0.15,0.552c0.042,0.134,0.067,0.268,0.092,0.402l11.572,64.595
					C262.659,222.529,260.944,226.218,258.291,227.75z"/>
				<path style="fill:#27DEBF;" d="M164.846,204.403l11.571,64.588c0.541,3.018,3.132,4.222,5.787,2.689l76.084-43.926
					c2.655-1.533,4.37-5.223,3.829-8.241l-11.573-64.588c-0.541-3.018-3.132-4.222-5.787-2.689l-76.081,43.926
					C166.019,197.695,164.305,201.385,164.846,204.403z"/>
				<path style="opacity:0.15;" d="M164.846,204.403l11.571,64.588c0.541,3.018,3.132,4.222,5.787,2.689l76.084-43.926
					c2.655-1.533,4.37-5.223,3.829-8.241l-11.573-64.588c-0.541-3.018-3.132-4.222-5.787-2.689l-76.081,43.926
					C166.019,197.695,164.305,201.385,164.846,204.403z"/>
				<path style="opacity:0.3;" d="M180.242,272.456c-1.155,0.31-2.435,0.418-3.673,0.335c-0.284-0.017-0.569-0.05-0.845-0.092
					c-0.226-0.033-0.452-0.067-0.678-0.117c-0.017,0-0.042-0.008-0.067-0.017c-0.251-0.05-0.502-0.117-0.753-0.193
					c-0.586-0.176-1.146-0.41-1.64-0.694l-3.916-2.259c-2.652-1.531-5.246-5.221-5.782-8.242l-11.572-64.586
					c-0.067-0.393-0.1-0.786-0.1-1.196c0-0.159,0.008-0.318,0.017-0.477c0.059-0.795,0.243-1.598,0.527-2.359l13.572,7.715
					c-0.527,1.347-0.728,2.803-0.485,4.133l11.572,64.586c0.402,2.251,1.941,3.498,3.807,3.347
					C180.225,272.38,180.234,272.414,180.242,272.456z"/>
			</g>
		</g>
		<g id="Character_4_">
			<g id="XMLID_475_">
				<g id="XMLID_683_">
					<g id="XMLID_299_">
						<path id="XMLID_352_" style="fill:#FFA8A7;" d="M340.041,330.258c0,0,4.595,18.041,7.689,23.7
							c3.487,6.378,6.882,11.94,12.217,17.889c1.162,1.296,3.798,3.695,4.748,4.743c0.846,0.933,0.999,2.026-0.16,3.175
							c-2.285,2.265-12.132,2.968-17.729-1.074c-5.597-4.042-10.313-10.766-13.666-14.04c-1.678-1.639-3.255-3.205-4.412-4.36
							c-1.11-1.109-1.562-2.71-1.186-4.234c0.107-0.432,0.225-0.939,0.355-1.533c1.178-5.347-5.211-18.845-5.211-18.845
							C327.325,329.026,334.048,329.287,340.041,330.258z"/>
						<g>
							<path style="fill:#263238;" d="M327.234,361.506c0,0-0.236,1.473,0.314,2.682c0.551,1.208,4.048,3.349,5.838,4.19
								c1.79,0.84,3.312,1.942,4.81,4.8c1.972,3.764,5.534,7.484,9.611,9.259c4.077,1.775,10.085,2.883,17.269,1.446
								c7.184-1.437,7.686-5.698,7.686-5.698s0.302-4.005-1.505-4.602C369.45,372.986,327.234,361.506,327.234,361.506z"/>
							<path id="XMLID_331_" style="fill:#455A64;" d="M326.963,349.164c0.098,0.383-0.029,1.428-0.075,1.923
								c-0.188,1.99-0.351,3.233-0.427,5.506c-0.057,1.691,0.169,3.7,0.774,4.913c2.181,2.903,7.218,3.772,10.193,7.735
								c2.975,3.963,6.541,10.09,16.021,11.781c9.479,1.691,16.585-1.45,18.278-4.171c1.693-2.721,0.049-5.223-6.066-8.372
								c-6.491-3.343-14.301-12.453-14.304-12.457c-0.782-0.919-1.48-1.942-2.181-2.924c-0.803-1.126-1.677-2.242-2.104-3.562
								c-0.444-1.374-0.714-2.794-0.769-4.238c-0.005-0.123-0.013-0.258-0.097-0.347c-0.082-0.088-0.213-0.106-0.332-0.117
								c-3.499-0.334-7.1,0.505-10.091,2.351c-0.306,0.189-0.614,0.396-0.814,0.694c-0.166,0.248-0.247,0.541-0.326,0.829
								c-0.207,0.759-0.413,1.519-0.62,2.279c-0.163,0.599-0.387,1.272-0.954,1.524c-0.691,0.307-1.457-0.183-2.054-0.648
								c-0.65-0.507-1.007-1.538-1.658-2.045C328.683,349.291,327.813,349.072,326.963,349.164z"/>
							<path style="fill:#FAFAFA;" d="M347.288,378.888c0,0-0.257-6.608,6.792-10.387c7.049-3.779,11.42-1.517,13.629,0.009
								c2.631,1.817,6.417,5.642,4.219,8.517c-2.374,3.105-6.241,4.635-13.503,4.862
								C351.162,382.116,347.288,378.888,347.288,378.888z"/>
						</g>
						<path id="XMLID_330_" style="fill:#27DEBF;" d="M237.258,236.762c3.397,9.749,4.589,20.804,17.369,29.793
							c11.626,8.178,37.579,14.369,40.859,15.974c3.381,1.655,5.449,2.186,6.851,7.5c1.913,7.252,2.141,12.737,8.939,25.469
							c4.782,8.956,8.445,15.357,12.21,21.956c3.45,0.396,15.216-2.833,16.975-5.588c-0.86-5.552-10.731-58.373-16.69-69.91
							c-5.032-9.742-67.702-41.606-67.702-41.606S233.86,227.013,237.258,236.762z"/>
						<path id="XMLID_354_" style="opacity:0.35;" d="M237.258,236.762c3.397,9.749,4.589,20.804,17.369,29.793
							c11.626,8.178,37.579,14.369,40.859,15.974c3.381,1.655,5.449,2.186,6.851,7.5c1.913,7.252,2.141,12.737,8.939,25.469
							c4.782,8.956,8.445,15.357,12.21,21.956c3.45,0.396,15.216-2.833,16.975-5.588c-0.86-5.552-10.731-58.373-16.69-69.91
							c-5.032-9.742-67.702-41.606-67.702-41.606S233.86,227.013,237.258,236.762z"/>
						<path style="opacity:0.1;" d="M323.486,337.455c1.442,0.166,4.337-0.303,7.346-1.105c-0.283-0.646-0.654-1.348-1.149-2.123
							c-4.127-6.187-7.03-12.36-10.77-19.923c-7.949-16.074-5.971-32.29-10.352-39.246c-3.744-5.944-13.596-11.773-13.596-11.773
							l18.215-10.517c-0.534-0.366-1.084-0.736-1.646-1.111c-0.024-0.016-0.047-0.032-0.071-0.047
							c-1.13-0.752-2.313-1.521-3.539-2.303c-0.033-0.021-0.067-0.043-0.1-0.064c-1.23-0.783-2.502-1.578-3.808-2.381
							c-0.022-0.014-0.044-0.027-0.066-0.041c-0.65-0.399-1.308-0.801-1.973-1.204c-0.004-0.002-0.008-0.005-0.012-0.007
							c-1.332-0.807-2.693-1.619-4.071-2.432c-0.06-0.036-0.121-0.071-0.181-0.107c-1.355-0.799-2.727-1.598-4.107-2.394
							c-0.074-0.042-0.147-0.085-0.221-0.127c-0.653-0.376-1.307-0.752-1.963-1.127c-0.034-0.02-0.069-0.04-0.104-0.059
							c-0.694-0.396-1.388-0.791-2.082-1.184c-0.062-0.035-0.124-0.07-0.187-0.106c-0.615-0.348-1.23-0.695-1.844-1.04
							c-0.108-0.06-0.216-0.121-0.323-0.181c-0.668-0.375-1.335-0.748-1.999-1.118c-0.043-0.024-0.086-0.048-0.129-0.072
							c-0.613-0.341-1.223-0.68-1.83-1.016c-0.138-0.077-0.277-0.153-0.415-0.229c-0.625-0.346-1.248-0.689-1.866-1.028
							c-0.011-0.006-0.022-0.012-0.033-0.018c-2.593-0.465-4.314-0.773-4.314-0.773l-35.629,14.907
							c0.457,1.311,0.959,2.625,1.534,3.932c0.006,0.014,0.012,0.028,0.019,0.042c0.963,2.185,2.132,4.355,3.639,6.478c0,0,0,0,0,0
							l17.18,13.245c10.213,4.681,23.278,8.324,29.371,10.24c0.008,0.002,0.016,0.005,0.024,0.007
							c0.565,0.178,1.07,0.341,1.506,0.488c0.055,0.018,0.104,0.036,0.157,0.054c0.149,0.051,0.289,0.1,0.42,0.147
							c0.058,0.021,0.115,0.041,0.169,0.062c0.119,0.044,0.227,0.085,0.329,0.125c0.042,0.016,0.087,0.034,0.126,0.05
							c0.131,0.054,0.249,0.105,0.344,0.151c0.634,0.31,1.221,0.581,1.767,0.851c1.456,0.721,2.613,1.437,3.554,2.888
							c0.588,0.907,1.091,2.1,1.529,3.761c0.12,0.453,0.232,0.9,0.341,1.341c0.325,1.325,0.609,2.608,0.907,3.907
							c0.099,0.433,0.2,0.868,0.304,1.308c0.312,1.318,0.656,2.672,1.086,4.123c0.143,0.484,0.296,0.978,0.46,1.485
							c0.329,1.014,0.704,2.081,1.141,3.216c1.093,2.838,2.576,6.109,4.7,10.088c0.299,0.56,0.593,1.11,0.884,1.65
							c1.742,3.243,3.339,6.15,4.852,8.868c0.252,0.453,0.502,0.9,0.75,1.344c0.992,1.772,1.953,3.471,2.9,5.139
							c0.711,1.251,1.414,2.485,2.119,3.72C323.015,336.631,323.25,337.042,323.486,337.455L323.486,337.455z"/>
					</g>
					<g id="XMLID_689_">
						<path id="XMLID_693_" style="fill:#FFA8A7;" d="M289.739,353.806c0,0,4.595,18.041,7.689,23.7
							c3.488,6.378,6.882,11.94,12.217,17.889c1.162,1.296,3.798,3.695,4.748,4.743c0.846,0.933,1,2.026-0.16,3.175
							c-2.285,2.265-12.132,2.968-17.729-1.074c-5.597-4.042-10.313-10.766-13.666-14.04c-1.678-1.639-3.255-3.205-4.412-4.36
							c-1.11-1.109-1.561-2.71-1.185-4.234c0.107-0.432,0.225-0.939,0.355-1.533c1.178-5.347-5.211-18.845-5.211-18.845
							C277.023,352.574,283.746,352.834,289.739,353.806z"/>
						<g>
							<path style="fill:#263238;" d="M276.932,385.053c0,0-0.236,1.473,0.314,2.682c0.551,1.208,4.048,3.349,5.838,4.189
								c1.79,0.84,3.188,2.165,4.81,4.8c2.227,3.619,5.534,7.484,9.611,9.259c4.077,1.775,10.084,2.883,17.269,1.446
								c7.184-1.437,7.686-5.698,7.686-5.698s0.302-4.005-1.505-4.602C319.148,396.533,276.932,385.053,276.932,385.053z"/>
							<path id="XMLID_692_" style="fill:#455A64;" d="M276.661,372.712c0.098,0.383-0.029,1.428-0.075,1.923
								c-0.188,1.99-0.351,3.233-0.427,5.506c-0.057,1.691,0.169,3.701,0.774,4.913c2.181,2.903,7.217,3.772,10.193,7.735
								c2.975,3.963,6.541,10.09,16.021,11.78c9.479,1.691,16.585-1.449,18.278-4.171c1.693-2.721,0.049-5.223-6.066-8.372
								c-6.491-3.343-14.301-12.453-14.304-12.457c-0.782-0.919-1.48-1.942-2.181-2.924c-0.803-1.126-1.677-2.242-2.104-3.562
								c-0.444-1.374-0.714-2.794-0.769-4.238c-0.005-0.123-0.012-0.258-0.097-0.347c-0.082-0.088-0.213-0.106-0.332-0.117
								c-3.499-0.334-7.1,0.505-10.091,2.351c-0.306,0.189-0.614,0.396-0.814,0.694c-0.166,0.248-0.247,0.541-0.325,0.829
								c-0.207,0.759-0.413,1.519-0.62,2.279c-0.163,0.599-0.387,1.272-0.954,1.524c-0.691,0.307-1.457-0.183-2.054-0.648
								c-0.65-0.507-1.007-1.538-1.657-2.045C278.381,372.839,277.511,372.62,276.661,372.712z"/>
							<path style="fill:#FAFAFA;" d="M296.986,402.435c0,0-0.257-6.608,6.792-10.387c7.049-3.779,11.42-1.517,13.629,0.009
								c2.631,1.817,6.417,5.642,4.219,8.517c-2.374,3.105-6.241,4.635-13.503,4.862
								C300.86,405.664,296.986,402.435,296.986,402.435z"/>
						</g>
						<path id="XMLID_690_" style="fill:#27DEBF;" d="M191.877,230.05c-1.721,9.659-3.997,24.723,1.848,33.234
							c5.391,7.849,12.614,13.178,25.784,21.586c14.526,9.273,21.768,13.788,25.206,16.229c3.424,2.431,6.757,5.845,7.79,11.243
							c1.201,6.277,2.338,12.487,8.475,25.509c4.826,10.24,10.196,19.623,12.909,24.809c4.085,0.7,14.281-1.262,16.949-4.722
							c-1.476-7.751-9.936-62.721-13.55-70.87c-3.564-8.038-32.255-32.596-32.255-32.596s-2.268-14.784,0.043-24.423H191.877z"/>
						<path id="XMLID_300_" style="opacity:0.35;" d="M191.877,230.05c-1.721,9.659-3.997,24.723,1.848,33.234
							c5.391,7.849,12.614,13.178,25.784,21.586c14.526,9.273,21.768,13.788,25.206,16.229c3.424,2.431,6.757,5.845,7.79,11.243
							c1.201,6.277,2.338,12.487,8.475,25.509c4.826,10.24,10.196,19.623,12.909,24.809c4.085,0.7,14.281-1.262,16.949-4.722
							c-1.476-7.751-9.936-62.721-13.55-70.87c-3.564-8.038-32.255-32.596-32.255-32.596s-2.268-14.784,0.043-24.423H191.877z"/>
						<path style="opacity:0.1;" d="M281.368,362.195c-0.303-1.013-0.794-2.172-1.541-3.501
							c-5.034-9.298-12.051-24.767-15.449-36.304c-3.41-11.576-0.656-19.948-6.338-26.792c-1.841-2.218-2.873-3.784-6.228-6.804
							l18.129-11.062c-3.017-3.121-7.546-7.587-11.26-11.042c-11.19-2.395-27.008,5.092-32.025,0.326
							c-10.531-10.004-5.756-12.294,10.531-21.392c1.869-1.044,4.255-2.338,6.857-3.819c10.137-5.992,12.896-12.248,13.996-20.39
							l-66.164,8.636c-0.376,2.113-0.779,4.484-1.118,6.99c-0.097,0.716-0.188,1.442-0.273,2.177
							c-0.21,1.837-0.375,3.723-0.46,5.613c-0.034,0.756-0.055,1.513-0.062,2.268c-0.01,1.132,0.013,2.259,0.077,3.371
							c0.042,0.741,0.103,1.476,0.183,2.201c0.201,1.813,0.528,3.566,1.013,5.214c0.582,1.978,1.393,3.804,2.488,5.4
							c0.337,0.491,0.681,0.971,1.033,1.444c1.057,1.417,2.187,2.757,3.418,4.058c1.231,1.301,2.562,2.563,4.021,3.822
							c0.973,0.839,2.002,1.678,3.096,2.526c1.094,0.848,2.253,1.706,3.485,2.585c3.08,2.197,6.615,4.524,10.73,7.151
							c1.816,1.159,3.518,2.244,5.113,3.26c4.785,3.047,8.606,5.472,11.648,7.417c0.507,0.324,0.992,0.635,1.457,0.933
							c3.252,2.087,5.484,3.551,6.988,4.62c1.498,1.064,2.978,2.315,4.256,3.839c1.643,1.959,2.952,4.368,3.534,7.404
							c1.201,6.277,2.338,12.487,8.475,25.509c2.413,5.12,4.962,10.026,7.247,14.3c0.857,1.603,1.677,3.117,2.438,4.52
							c1.269,2.339,2.376,4.369,3.224,5.99C275.626,362.958,278.469,362.77,281.368,362.195z"/>
					</g>
					<path id="XMLID_684_" style="fill:#37474F;" d="M251.813,241.229c0,0-3.608,5.331-6.833,8.629l1.941,1.63
						C246.921,251.488,250.759,246.661,251.813,241.229z"/>
				</g>
			</g>
			<path style="fill:#FFA8A7;" d="M290.915,229.308c-1.755-7.883-6.49-29.748-8.307-39.152c-0.512-2.649-1.603-5.149-3.196-7.327
				l-23.483-33.787l-3.26,2.393l2.912,37.967l6.61,7.565c3.78,12.792,12.883,38.023,12.883,38.023
				C280.306,241.249,292.194,235.055,290.915,229.308z"/>
			<path id="XMLID_18858_" style="fill:#455A64;" d="M231.103,140.548c10.203-1.79,17.753-1.204,24.231,6.019
				c5.166,5.759,23.179,33.046,23.179,33.046s-7.117,13.546-19.281,16.34l-16.649-16.634L231.103,140.548z"/>
			<g>
				<path id="XMLID_18849_" style="fill:#FAFAFA;" d="M216.254,141.497c-12.467,2.303-20.779,4.987-23.133,7.268
					c-5.303,10.859,1.595,47.267,1.595,47.267l-0.706,17.018l-2.987,16.989c13.466,11.383,59.668,7.322,67.018-8.626
					c0,0-2.382-49.436-3.301-58.591c-1.062-10.571-6.813-21.638-20.928-22.458L216.254,141.497z"/>
				<path style="fill:#EBEBEB;" d="M207.174,225.51c-3.607-5.542-6.753-19.743-6.753-19.743s5.944-37.119,4.494-45.874
					l-12.997,16.455c1.061,10.511,2.798,19.685,2.798,19.685l-0.706,17.018l-2.987,16.989c10.772,9.105,40.921,10.366,59.616-1.15
					C230.836,235.429,210.779,231.05,207.174,225.51z"/>
			</g>
			<g id="XMLID_1017_">
				<g id="XMLID_1037_">
					<path id="XMLID_1042_" style="fill:#263238;" d="M207.71,108.556c0,0,1.936,14.251,2.962,16.646
						c1.025,2.394,3.45,3.234,3.45,3.234l0.529-9.884L207.71,108.556z"/>
					<path id="XMLID_1041_" style="fill:#263238;" d="M212.96,88.74c0,0-3.175-0.792-5.873,1.584
						c-2.646,2.329-1.861,10.299,0.623,18.232l5.576,1.066L212.96,88.74z"/>
					<path id="XMLID_1040_" style="fill:#FFA8A7;" d="M214.973,109.753c-1.178,0.589-2.625-1.697-3.907-3.257
						c-1.282-1.559-5.673-3.887-8.295,0.716c-2.671,4.691,1.155,11.439,4.646,12.829c6.016,2.394,7.236-1.488,7.236-1.488
						L213.34,143c5.582,12.16,32.369,11.492,20.246-0.352l0.449-7.704c0,0,6.537,0.912,9.291,0.695
						c4.583-0.361,6.68-3.359,8.421-8.16c2.796-7.711,4.11-14.008,3.396-29.638c-0.783-17.131-20.517-18.785-31.683-12.87
						C212.294,90.885,214.973,109.753,214.973,109.753z"/>
					<path id="XMLID_1039_" style="fill:#263238;" d="M214.58,79.527c3.783-1.441,7.878-2.068,11.91-2.633
						c8.752-1.226,17.654-2.292,25.816-5.679c1.007-0.418,2.083-0.88,3.15-0.657c2.054,0.428,2.774,3.008,2.7,5.104
						c-0.068,1.941-0.468,3.87-1.178,5.677c1.215-1.245,3.481-0.89,4.627,0.419c1.146,1.308,1.334,3.234,0.979,4.937
						c-0.796,3.817-3.99,6.807-7.61,8.259c-3.619,1.452-7.627,1.584-11.522,1.406c-5.441-0.249-10.857-1.068-16.129-2.437
						c-1.281-0.333-2.588-0.701-3.905-0.578c-1.317,0.123-2.671,0.86-3.106,2.109c-0.732,2.1-2.418,16.64-5.419,16.477
						c-0.56-0.031-2.41-3.862-3.695-5.276c-1.615-1.778-2.43-14.4-2.567-16.731c-0.011-0.191-0.104-0.345-0.203-0.509
						c-1.754-2.891,0.892-7.345,3.423-8.668C212.739,80.284,213.65,79.881,214.58,79.527z"/>
					<path style="fill:#263238;" d="M209.499,89.695c-1.6,1.617-4.208,1.63-5.825,0.029c-1.617-1.601-1.63-4.208-0.029-5.825
						L209.499,89.695z"/>
					<path id="XMLID_1038_" style="fill:#F28F8F;" d="M234.035,134.943c0,0-10.04-1.728-13.435-3.872
						c-2.272-1.435-4.058-3.761-4.526-5.201c0,0,0.438,3.05,2.35,5.911c2.339,3.499,15.387,6.987,15.387,6.987L234.035,134.943z"/>
				</g>
				<g id="XMLID_1018_">
					<path id="XMLID_1036_" style="fill:#263238;" d="M235.043,108.601c-0.087,1.163-1.065,2.035-2.184,1.948
						c-1.119-0.087-1.955-1.1-1.868-2.263c0.087-1.163,1.064-2.035,2.184-1.949C234.293,106.425,235.13,107.438,235.043,108.601z"/>
					<path id="XMLID_1035_" style="fill:#263238;" d="M233.465,100.789l-4.514,2.068c-0.546-1.293,0.022-2.805,1.269-3.376
						C231.466,98.91,232.919,99.496,233.465,100.789z"/>
					<path id="XMLID_1034_" style="fill:#F28F8F;" d="M234.029,122.713l4.496,2.082c-0.557,1.292-2.015,1.873-3.257,1.298
						C234.027,125.518,233.471,124.005,234.029,122.713z"/>
					<path id="XMLID_1033_" style="fill:#263238;" d="M253.003,103.988l-3.725-3.34c0.891-1.072,2.447-1.192,3.476-0.27
						C253.782,101.3,253.894,102.916,253.003,103.988z"/>
					<path id="XMLID_1032_" style="fill:#263238;" d="M251.383,109.285c-0.087,1.163-1.064,2.035-2.184,1.948
						c-1.119-0.087-1.956-1.1-1.868-2.262c0.087-1.163,1.064-2.035,2.183-1.948C250.633,107.108,251.47,108.121,251.383,109.285z"/>
					<polygon id="XMLID_1019_" style="fill:#F28F8F;" points="241.045,107.191 240.799,119.427 247.324,117.734 					"/>
				</g>
			</g>
			<g>
				<g id="XMLID_721_">
					<g id="XMLID_745_">
						<path id="XMLID_746_" style="fill:#27DEBF;" d="M204.915,262.416v1.247c0,1.259,0.673,2.425,1.759,3.054l33.608,19.34
							c0.543,0.315,1.154,0.469,1.765,0.469c0.605,0,1.216-0.154,1.759-0.469l61.653-35.594c1.092-0.629,1.765-1.796,1.765-3.054
							v-0.858l-65.176,37.63L204.915,262.416z"/>
					</g>
					<g id="XMLID_753_" style="opacity:0.5;">
						<path id="XMLID_754_" style="fill:#FFFFFF;" d="M204.915,262.416v1.247c0,1.259,0.673,2.425,1.759,3.054l33.608,19.34
							c0.543,0.315,1.154,0.469,1.765,0.469c0.605,0,1.216-0.154,1.759-0.469l61.653-35.594c1.092-0.629,1.765-1.796,1.765-3.054
							v-0.858l-65.176,37.63L204.915,262.416z"/>
					</g>
					<g id="XMLID_393_" style="opacity:0.1;">
						<path id="XMLID_402_" d="M204.915,262.416v1.247c0,1.259,0.673,2.425,1.759,3.054l33.608,19.34
							c0.543,0.315,1.154,0.469,1.765,0.469c0.605,0,1.216-0.154,1.759-0.469l61.653-35.594c1.092-0.629,1.765-1.796,1.765-3.054
							v-0.858l-65.176,37.63L204.915,262.416z"/>
					</g>
					<g id="XMLID_743_">
						<path id="XMLID_744_" style="fill:#27DEBF;" d="M307.223,246.552l-36.556-21.103c-0.65-0.375-1.451-0.375-2.101,0
							l-63.418,36.619c-0.311,0.18-0.311,0.629,0,0.809l36.898,21.307L307.223,246.552z"/>
					</g>
					<g id="XMLID_747_" style="opacity:0.85;">
						<path id="XMLID_748_" style="fill:#FFFFFF;" d="M307.223,246.552l-36.556-21.103c-0.65-0.375-1.451-0.375-2.101,0
							l-63.418,36.619c-0.311,0.18-0.311,0.629,0,0.809l36.898,21.307L307.223,246.552z"/>
					</g>
					<g id="XMLID_741_">
						<polygon id="XMLID_742_" style="fill:#27DEBF;" points="242.277,280.743 222.56,269.372 279.645,236.423 299.465,247.735 
													"/>
					</g>
					<g id="XMLID_749_" style="opacity:0.6;">
						<polygon id="XMLID_750_" style="fill:#FFFFFF;" points="242.277,280.743 222.56,269.372 279.645,236.423 299.465,247.735 
													"/>
					</g>
					<g id="XMLID_739_">
						<polygon id="XMLID_740_" style="fill:#27DEBF;" points="232.019,249.446 232.383,249.656 242.046,255.234 259.232,245.312 
							259.59,245.108 249.563,239.32 						"/>
					</g>
					<g id="XMLID_737_">
						<polygon id="XMLID_738_" style="fill:#27DEBF;" points="232.383,249.656 242.046,255.234 259.232,245.312 249.563,239.733 
													"/>
					</g>
					<g id="XMLID_751_" style="opacity:0.6;">
						<polygon id="XMLID_752_" style="fill:#FFFFFF;" points="232.383,249.656 242.046,255.234 259.232,245.312 249.563,239.733 
													"/>
					</g>
					<g id="XMLID_735_">
						<path id="XMLID_736_" style="fill:#27DEBF;" d="M242.046,284.182v2.345c0.605,0,1.216-0.154,1.759-0.469l61.653-35.594
							c1.092-0.629,1.765-1.796,1.765-3.054v-0.858L242.046,284.182z"/>
					</g>
					<g id="XMLID_732_" style="opacity:0.03;">
						<path id="XMLID_734_" style="fill:#FFFFFF;" d="M242.046,284.182v2.345c0.605,0,1.216-0.154,1.759-0.469l61.653-35.594
							c1.092-0.629,1.765-1.796,1.765-3.054v-0.858L242.046,284.182z"/>
					</g>
					<g id="XMLID_760_" style="opacity:0.2;">
						<path id="XMLID_761_" d="M242.046,284.182v2.345c0.605,0,1.216-0.154,1.759-0.469l61.653-35.594
							c1.092-0.629,1.765-1.796,1.765-3.054v-0.858L242.046,284.182z"/>
					</g>
					<g id="XMLID_727_">
						<path id="XMLID_728_" style="fill:#27DEBF;" d="M243.04,284.702c1.166,0.45,2.493,0.364,3.598-0.278l61.381-35.439
							c1.08-0.623,1.82-1.691,2.03-2.919l6.72-40.073c0.037-0.228,0.055-0.457,0.055-0.685c0-1.117-0.444-2.185-1.234-2.968
							l-63.788,36.834c-0.796,0.463-1.345,1.253-1.5,2.16L243.04,284.702z"/>
					</g>
					<g id="XMLID_758_" style="opacity:0.4;">
						<path id="XMLID_759_" style="fill:#FFFFFF;" d="M243.04,284.702c1.166,0.45,2.493,0.364,3.598-0.278l61.381-35.439
							c1.08-0.623,1.82-1.691,2.03-2.919l6.72-40.073c0.037-0.228,0.055-0.457,0.055-0.685c0-1.117-0.444-2.185-1.234-2.968
							l-63.788,36.834c-0.796,0.463-1.345,1.253-1.5,2.16L243.04,284.702z"/>
					</g>
					<g id="XMLID_725_">
						<path id="XMLID_726_" style="fill:#27DEBF;" d="M242.046,284.184l0.42,0.241c0.185,0.105,0.376,0.198,0.574,0.278
							l7.263-43.369c0.154-0.907,0.704-1.697,1.5-2.16l63.788-36.834c-0.247-0.247-0.537-0.463-0.851-0.648l-63.917,36.902
							c-0.796,0.463-1.345,1.253-1.5,2.16L242.046,284.184z"/>
					</g>
					<g id="XMLID_755_" style="opacity:0.6;">
						<path id="XMLID_756_" style="fill:#FFFFFF;" d="M242.046,284.184l0.42,0.241c0.185,0.105,0.376,0.198,0.574,0.278
							l7.263-43.369c0.154-0.907,0.704-1.697,1.5-2.16l63.788-36.834c-0.247-0.247-0.537-0.463-0.851-0.648l-63.917,36.902
							c-0.796,0.463-1.345,1.253-1.5,2.16L242.046,284.184z"/>
					</g>
					<path style="fill:#27DEBF;" d="M250.882,240.008l-0.988-0.573c-0.286,0.386-0.489,0.833-0.572,1.319l-7.275,43.43l0.42,0.241
						c0.185,0.105,0.377,0.198,0.574,0.278l7.263-43.369C250.386,240.844,250.592,240.395,250.882,240.008z"/>
					<path style="opacity:0.5;fill:#FFFFFF;" d="M250.882,240.008l-0.988-0.573c-0.286,0.386-0.489,0.833-0.572,1.319l-7.275,43.43
						l0.42,0.241c0.185,0.105,0.377,0.198,0.574,0.278l7.263-43.369C250.386,240.844,250.592,240.395,250.882,240.008z"/>
					<path style="opacity:0.1;" d="M250.882,240.008l-0.988-0.573c-0.286,0.386-0.489,0.833-0.572,1.319l-7.275,43.43l0.42,0.241
						c0.185,0.105,0.377,0.198,0.574,0.278l7.263-43.369C250.386,240.844,250.592,240.395,250.882,240.008z"/>
					<g id="XMLID_723_">
						<path id="XMLID_724_" style="fill:#455A64;" d="M277.61,247.709c0.45-2.683,3.22-6.246,6.187-7.959
							c2.967-1.713,5.008-0.926,4.558,1.757c-0.45,2.683-3.22,6.247-6.187,7.959C279.201,251.178,277.16,250.392,277.61,247.709z"/>
					</g>
				</g>
			</g>
		</g>
		<g id="XMLID_875_">
			<g id="XMLID_15355_">
				<path style="fill:#37474F;" d="M125.66,303.501l24.675-70.71l9.02,0l-30.475,71.963c-0.148,0.341-0.401,0.625-0.722,0.81l0,0
					C126.772,306.364,125.137,305.013,125.66,303.501z"/>
			</g>
			<g id="XMLID_298_">
				<path style="fill:#455A64;" d="M154.278,213.135l69.481,55.158c4.953,3.932,8.06,9.737,8.585,16.04l8.237,85.356
					c0.045,0.541-0.226,1.06-0.697,1.332l0,0c-0.848,0.49-1.924-0.018-2.085-0.983l-13.605-80.273
					c-1.077-6.427-4.841-12.09-10.348-15.573l-59.269-37.478c-11.37-7.19-11.813-23.253-1.67-31.219L154.278,213.135z"/>
			</g>
			<path style="opacity:0.2;" d="M168.05,224.068c-1.625,2.928-2.479,6.282-2.423,9.632c0.017,1.004,0.12,2.035,0.576,2.93
				c0.522,1.027,1.455,1.777,2.398,2.438c3.92,2.747,8.438,4.492,12.907,6.209c7.205,2.77,15.232,5.015,22.047,6.976L168.05,224.068
				z"/>
			<g id="XMLID_15358_">
				<path style="fill:#37474F;" d="M144.922,266.123L144.922,266.123c-2.056,4.749-0.226,10.285,4.256,12.873l70.928,40.951
					c4.036,2.331,9.005-1.117,8.235-5.714l0,0l5.448,32.142l0,0c-0.936-5.584-4.463-10.689-9.367-13.52l-78.853-45.525
					c-4.189-2.419-9.55-0.646-11.473,3.793l0,0L144.922,266.123z"/>
			</g>
		</g>
		<g>
			<path style="fill:#FFA8A7;" d="M244.98,260.069c-1.286-2.125-13.682-15.065-15.238-16.115c-3.341-2.255-7.48-1.824-12.063-3.893
				c-4.173-1.885-6.263-4.085-15.633-10.073c-8.898-5.687-14.466-9.453-14.466-9.453l11.705-36.813
				c7.59-15.067,2.074-31.8-3.578-36.261c-6.994,1.526-11.782,3.406-16.178,19.118c-2.699,9.647-11.726,39.356-13.556,49.372
				c-2.188,11.98-2.587,14.99,7.992,20.245c10.853,5.391,31.734,13.521,35.237,15.04c3.503,1.518,4.541,3.494,7.006,4.893
				c2.305,1.308,3.587,1.834,5.727,2.592c2.325,0.823,4.483,2.04,6.409,3.579c0.503,0.402,1.033,0.803,1.554,1.161
				c3.235,2.22,6.476,3.923,10.462,2.664C244.726,264.749,246.267,262.194,244.98,260.069z"/>
			<g>
				<path style="fill:#455A64;" d="M198.927,146.05c-10.804,1.247-15.504,4.82-19.397,16.5
					c-3.893,11.68-10.755,37.057-10.755,37.057s11.984,10.57,24.701,9.531l8.45-29.326
					C201.926,179.812,213.267,155.726,198.927,146.05z"/>
			</g>
		</g>
	</g>
</g>
<g id="Plant">
	<g id="Pot_1_">
		<g id="XMLID_17_">
			<g id="XMLID_18_">
				<g id="XMLID_19_">
					<g id="XMLID_32_">
						<path id="XMLID_33_" style="fill:#27DEBF;" d="M64.581,337.445c-11.123-11.477-17.657-58.186-6.808-67.289h55.201
							c10.846,9.1,4.32,55.794-6.797,67.278c-0.095,0.107-0.204,0.21-0.305,0.316c-0.128,0.127-0.254,0.256-0.383,0.379
							c-0.314,0.308-0.647,0.609-1.006,0.904c-0.088,0.074-0.177,0.139-0.266,0.211c-0.273,0.216-0.542,0.433-0.84,0.642
							c-0.474,0.34-0.953,0.657-1.438,0.929c-9.15,5.342-23.984,5.342-33.133,0l0,0l-0.001,0c-0.489-0.274-0.97-0.593-1.448-0.936
							c-0.277-0.194-0.526-0.397-0.781-0.598c-0.109-0.088-0.219-0.169-0.329-0.261c-0.345-0.285-0.666-0.576-0.97-0.872
							c-0.149-0.141-0.296-0.29-0.442-0.437C64.754,337.622,64.661,337.536,64.581,337.445z"/>
					</g>
					<g id="XMLID_30_" style="opacity:0.5;">
						<path id="XMLID_31_" style="fill:#FFFFFF;" d="M64.581,337.445c-11.123-11.477-17.657-58.186-6.808-67.289h55.201
							c10.846,9.1,4.32,55.794-6.797,67.278c-0.095,0.107-0.204,0.21-0.305,0.316c-0.128,0.127-0.254,0.256-0.383,0.379
							c-0.314,0.308-0.647,0.609-1.006,0.904c-0.088,0.074-0.177,0.139-0.266,0.211c-0.273,0.216-0.542,0.433-0.84,0.642
							c-0.474,0.34-0.953,0.657-1.438,0.929c-9.15,5.342-23.984,5.342-33.133,0l0,0l-0.001,0c-0.489-0.274-0.97-0.593-1.448-0.936
							c-0.277-0.194-0.526-0.397-0.781-0.598c-0.109-0.088-0.219-0.169-0.329-0.261c-0.345-0.285-0.666-0.576-0.97-0.872
							c-0.149-0.141-0.296-0.29-0.442-0.437C64.754,337.622,64.661,337.536,64.581,337.445z"/>
					</g>
					<g id="XMLID_28_">
						<path id="XMLID_29_" style="fill:#27DEBF;" d="M108.181,266.49c12.595,7.354,12.595,19.276,0,26.63
							c-12.595,7.354-33.016,7.354-45.611,0c-12.595-7.353-12.595-19.276,0-26.629C75.166,259.136,95.586,259.136,108.181,266.49z"
							/>
					</g>
					<g id="XMLID_26_" style="opacity:0.7;">
						<path id="XMLID_27_" style="fill:#FFFFFF;" d="M108.181,266.49c12.595,7.354,12.595,19.276,0,26.63
							c-12.595,7.354-33.016,7.354-45.611,0c-12.595-7.353-12.595-19.276,0-26.629C75.166,259.136,95.586,259.136,108.181,266.49z"
							/>
					</g>
					<g id="XMLID_24_">
						<path id="XMLID_25_" style="fill:#27DEBF;" d="M102.123,270.026c9.249,5.401,9.249,14.156,0,19.556
							c-9.25,5.4-24.246,5.4-33.496,0c-9.249-5.4-9.249-14.156,0-19.556C77.877,264.626,92.874,264.626,102.123,270.026z"/>
					</g>
					<g id="XMLID_22_" style="opacity:0.3;">
						<path id="XMLID_23_" d="M102.123,270.026c9.249,5.401,9.249,14.156,0,19.556c-9.25,5.4-24.246,5.4-33.496,0
							c-9.249-5.4-9.249-14.156,0-19.556C77.877,264.626,92.874,264.626,102.123,270.026z"/>
					</g>
					<g id="XMLID_20_">
						<path id="XMLID_21_" style="fill:#F5F5F5;" d="M68.628,279.308c9.249-5.401,24.246-5.401,33.495,0
							c2.569,1.5,4.398,3.263,5.54,5.138c-1.142,1.874-2.971,3.637-5.54,5.137c-9.249,5.4-24.246,5.4-33.495,0
							c-2.569-1.5-4.399-3.263-5.541-5.137C64.229,282.571,66.058,280.808,68.628,279.308z"/>
					</g>
				</g>
			</g>
		</g>
		<g id="Plants_1_">
			<g id="XMLID_6_">
				<g id="XMLID_15_">
					<path id="XMLID_16_" style="fill:#27DEBF;" d="M80.854,255.737c-0.618-1.255-1.138-2.559-1.408-4.027
						c-0.619-3.363,0.22-7.217,2.941-9.287c1.083-0.824,2.492-1.434,2.953-2.714c0.254-0.705,0.158-1.484,0.028-2.222
						c-0.506-2.871-1.475-5.827-0.676-8.63c0.739-2.594,2.917-4.582,5.354-5.738s5.14-1.599,7.801-2.038
						c1.419-0.234,2.87-0.481,4.125-1.183c1.542-0.863,2.021-2.387,2.982-3.725c1.058-1.473,2.435-2.838,3.784-4.043
						c2.811-2.512,6.332-4.578,10.224-4.406c8.118,0.359,7.889,7.346,5.545,12.642c-2.344,5.297-2.96,7.02,2.112,12.538
						c5.072,5.518,5.083,12.319-0.968,16.128c-6.051,3.81-9.991,4.31-7.595,11.643c2.139,6.546,3.464,12.135-2.586,19.131
						c-3.91,4.522-9.256,7.75-15.945,7.475c-1.896-0.078-6.062-0.95-7.822-1.825c-1.842-0.915-0.601-2.347-1.223-4.163
						c-1.336-3.903-2.673-7.806-4.009-11.709c-1.034-3.021-1.822-6.372-3.188-9.234C82.515,258.743,81.611,257.276,80.854,255.737z"
						/>
				</g>
				<g id="XMLID_13_" style="opacity:0.15;">
					<path id="XMLID_14_" d="M80.854,255.737c-0.618-1.255-1.138-2.559-1.408-4.027c-0.619-3.363,0.22-7.217,2.941-9.287
						c1.083-0.824,2.492-1.434,2.953-2.714c0.254-0.705,0.158-1.484,0.028-2.222c-0.506-2.871-1.475-5.827-0.676-8.63
						c0.739-2.594,2.917-4.582,5.354-5.738s5.14-1.599,7.801-2.038c1.419-0.234,2.87-0.481,4.125-1.183
						c1.542-0.863,2.021-2.387,2.982-3.725c1.058-1.473,2.435-2.838,3.784-4.043c2.811-2.512,6.332-4.578,10.224-4.406
						c8.118,0.359,7.889,7.346,5.545,12.642c-2.344,5.297-2.96,7.02,2.112,12.538c5.072,5.518,5.083,12.319-0.968,16.128
						c-6.051,3.81-9.991,4.31-7.595,11.643c2.139,6.546,3.464,12.135-2.586,19.131c-3.91,4.522-9.256,7.75-15.945,7.475
						c-1.896-0.078-6.062-0.95-7.822-1.825c-1.842-0.915-0.601-2.347-1.223-4.163c-1.336-3.903-2.673-7.806-4.009-11.709
						c-1.034-3.021-1.822-6.372-3.188-9.234C82.515,258.743,81.611,257.276,80.854,255.737z"/>
				</g>
				<g id="XMLID_11_">
					<path id="XMLID_12_" style="fill:#FFFFFF;" d="M91.892,285.422c0.236-0.082,0.404-0.309,0.401-0.576
						c-0.343-40.104,21.76-64.048,21.984-64.284c0.227-0.241,0.218-0.624-0.022-0.854c-0.238-0.231-0.617-0.223-0.844,0.02
						c-0.227,0.24-22.66,24.513-22.312,65.128c0.003,0.334,0.272,0.602,0.602,0.6C91.768,285.454,91.832,285.443,91.892,285.422z"/>
				</g>
				<g id="XMLID_9_">
					<path id="XMLID_10_" style="fill:#FFFFFF;" d="M98.326,248.119c0.042-0.015,0.082-0.034,0.121-0.058
						c7.192-4.526,20.027-7.903,20.155-7.939c0.323-0.085,0.511-0.412,0.429-0.735c-0.083-0.323-0.41-0.518-0.729-0.434
						c-0.534,0.137-13.141,3.458-20.487,8.082c-0.281,0.176-0.365,0.548-0.19,0.832C97.774,248.11,98.068,248.209,98.326,248.119z"
						/>
				</g>
				<g id="XMLID_7_">
					<path id="XMLID_8_" style="fill:#FFFFFF;" d="M100.547,242.62c0.011-0.004,0.021-0.007,0.032-0.012
						c0.305-0.125,0.452-0.478,0.326-0.787c-2.517-6.218-6.468-10.96-6.635-11.159c-0.214-0.254-0.592-0.288-0.842-0.07
						c-0.252,0.215-0.282,0.597-0.068,0.852c0.04,0.047,3.995,4.8,6.439,10.833C99.92,242.575,100.25,242.724,100.547,242.62z"/>
				</g>
			</g>
			<g id="XMLID_1_">
				<path id="XMLID_5_" style="fill:#27DEBF;" d="M87.799,288.328c0,0-7.505,2.84-17.608,0.652
					c-10.103-2.188-16.283-11.622-16.283-11.622s10.927-4.378,17.3-4.803c0,0-9.888-1.685-19.139,0.41c0,0-5.848-2.178-4.74-12.054
					c0,0,5.504-4.057,18.174-2.467c0,0-6.349-4.532-17.479-5.869c-0.876,0.009,0.309-12.856,1.371-18.591
					c1.062-5.734,3.167-4.849,7.718-4.354c4.551,0.495,18.013,3.558,19.721,6.861c1.708,3.302,0.048,11.72,0.048,11.72
					s3.7-4.605,3.715-11.018c0,0,5.066,1.852,7.775,4.244c2.709,2.392,4.063,4.325,4.846,6.066
					c-0.633,4.515-2.757,11.402-5.735,15.249c0,0,6.711-4.333,8.245-12.315c0,0,5.367,6.855,5.314,15.705
					C100.981,276.237,96.493,283.729,87.799,288.328z"/>
				<g id="XMLID_3_">
					<path id="XMLID_4_" style="fill:#FFFFFF;" d="M87.592,288.869c-0.199-0.077-0.347-0.265-0.365-0.495
						c-1.528-19.138-22.941-49.035-32.406-55.037c-0.268-0.17-0.35-0.529-0.181-0.801c0.168-0.272,0.525-0.349,0.792-0.183
						c9.621,6.102,31.388,36.484,32.939,55.927c0.026,0.32-0.21,0.6-0.525,0.625C87.755,288.913,87.671,288.9,87.592,288.869z"/>
				</g>
			</g>
		</g>
	</g>
</g>
</svg>
